<svg width="40" height="40" viewBox="0 0 40 40" fill="none" xmlns="http://www.w3.org/2000/svg">
<path d="M30.067 22.5836C29.367 23.267 28.967 24.2503 29.067 25.3003C29.217 27.1003 30.867 28.417 32.667 28.417H35.8337V30.4003C35.8337 33.8503 33.017 36.667 29.567 36.667H12.717C13.2337 36.2337 13.6837 35.7003 14.0337 35.1003C14.6503 34.1003 15.0003 32.917 15.0003 31.667C15.0003 27.9837 12.017 25.0003 8.33366 25.0003C6.76699 25.0003 5.31699 25.5503 4.16699 26.467V19.1837C4.16699 15.7337 6.98366 12.917 10.4337 12.917H29.567C33.017 12.917 35.8337 15.7337 35.8337 19.1837V21.5837H32.467C31.5337 21.5837 30.6837 21.9503 30.067 22.5836Z" stroke="#292D32" stroke-width="1.5" stroke-linecap="round" stroke-linejoin="round"/>
<path d="M4.16699 20.6832V13.0666C4.16699 11.0833 5.38365 9.31652 7.23365 8.61652L20.467 3.61652C22.5337 2.83319 24.7503 4.36657 24.7503 6.58324V12.9166" stroke="#292D32" stroke-width="1.5" stroke-linecap="round" stroke-linejoin="round"/>
<path d="M37.5983 23.2839V26.7173C37.5983 27.634 36.865 28.3839 35.9317 28.4173H32.665C30.865 28.4173 29.215 27.1006 29.065 25.3006C28.965 24.2506 29.365 23.2673 30.065 22.5839C30.6817 21.9506 31.5317 21.584 32.465 21.584H35.9317C36.865 21.6173 37.5983 22.3672 37.5983 23.2839Z" stroke="#292D32" stroke-width="1.5" stroke-linecap="round" stroke-linejoin="round"/>
<path d="M11.667 20H23.3337" stroke="#292D32" stroke-width="1.5" stroke-linecap="round" stroke-linejoin="round"/>
<path d="M15.0003 31.6667C15.0003 32.9167 14.6503 34.1 14.0337 35.1C13.6837 35.7 13.2337 36.2333 12.717 36.6667C11.5503 37.7167 10.017 38.3333 8.33366 38.3333C5.90033 38.3333 3.78366 37.0333 2.63366 35.1C2.017 34.1 1.66699 32.9167 1.66699 31.6667C1.66699 29.5667 2.63366 27.6833 4.16699 26.4667C5.31699 25.55 6.76699 25 8.33366 25C12.017 25 15.0003 27.9833 15.0003 31.6667Z" stroke="#292D32" stroke-width="1.5" stroke-miterlimit="10" stroke-linecap="round" stroke-linejoin="round"/>
<path d="M10.8202 31.6328H5.85352" stroke="#292D32" stroke-width="1.5" stroke-miterlimit="10" stroke-linecap="round" stroke-linejoin="round"/>
<path d="M8.33398 29.1992V34.1825" stroke="#292D32" stroke-width="1.5" stroke-miterlimit="10" stroke-linecap="round" stroke-linejoin="round"/>
</svg>
