<svg width="229" height="19" viewBox="0 0 229 19" fill="none" xmlns="http://www.w3.org/2000/svg">
<path d="M16.85 15.97C18.19 15.97 18.86 15.21 18.86 13.69C18.86 12.17 18.19 11.41 16.85 11.41H16.58V8.41C18.34 8.41 19.67 8.76 20.57 9.46C21.47 10.16 21.92 11.26 21.92 12.76V14.53C21.92 16.03 21.5 17.15 20.66 17.89C19.82 18.63 18.49 19 16.67 19H0.71V15.97H16.85ZM5.78 3.85C4.44 3.85 3.77 4.61 3.77 6.13C3.77 7.65 4.44 8.41 5.78 8.41H6.05V11.41C2.49 11.41 0.71 9.96 0.71 7.06V5.29C0.71 2.31 2.47 0.82 5.99 0.82H21.92V3.85H5.78ZM37.9787 6.34H41.0087V19H37.9787V6.34ZM50.0387 6.07C50.0387 5.37 49.7987 4.83 49.3187 4.45C48.8587 4.05 48.3187 3.85 47.6987 3.85H28.9787V19H25.9487V0.82H47.4587C49.1587 0.82 50.5087 1.23 51.5087 2.05C52.5287 2.87 53.0387 3.98 53.0387 5.38V19H50.0387V6.07ZM75.7667 16L68.6867 4.6H68.6267L61.5167 16H75.7667ZM71.8067 3.85L81.1667 19H56.1767L65.5067 3.85C66.1067 2.87 66.6867 2.12 67.2467 1.6C67.8067 1.08 68.1767 0.82 68.3567 0.82H68.9567C69.0767 0.82 69.2167 0.859999 69.3767 0.939998C69.5367 1.02 69.7267 1.18 69.9467 1.42C70.1667 1.64 70.4267 1.95 70.7267 2.35C71.0467 2.73 71.4067 3.23 71.8067 3.85ZM99.1857 3.85H83.1057V0.82H99.0957C99.9757 0.82 100.746 0.939999 101.406 1.18C102.066 1.42 102.606 1.75 103.026 2.17C103.466 2.57 103.796 3.05 104.016 3.61C104.236 4.17 104.346 4.76 104.346 5.38V6.91C104.346 7.49 104.236 8.05 104.016 8.59C103.796 9.13 103.466 9.61 103.026 10.03C102.606 10.45 102.066 10.79 101.406 11.05C100.746 11.31 99.9757 11.44 99.0957 11.44H89.5257L104.346 19H97.9257L83.1057 11.47V8.44H99.1857C99.8457 8.44 100.366 8.24 100.746 7.84C101.126 7.44 101.316 6.86 101.316 6.1C101.316 5.34 101.126 4.78 100.746 4.42C100.366 4.04 99.8457 3.85 99.1857 3.85ZM108.432 0.82H129.642V3.85H120.552V19H117.522V3.85H108.432V0.82ZM153.824 13.75C153.844 14.45 154.064 15 154.484 15.4C154.924 15.78 155.454 15.97 156.074 15.97H172.004V19H156.374C154.674 19 153.314 18.59 152.294 17.77C151.294 16.95 150.794 15.84 150.794 14.44V5.38C150.794 3.98 151.294 2.87 152.294 2.05C153.314 1.23 154.674 0.82 156.374 0.82H172.004V5.38H168.974V3.85H156.074C155.454 3.85 154.924 4.05 154.484 4.45C154.044 4.83 153.824 5.37 153.824 6.07V13.75ZM192.113 3.85H176.033V0.82H192.023C192.903 0.82 193.673 0.939999 194.333 1.18C194.993 1.42 195.533 1.75 195.953 2.17C196.393 2.57 196.723 3.05 196.943 3.61C197.163 4.17 197.273 4.76 197.273 5.38V6.91C197.273 7.49 197.163 8.05 196.943 8.59C196.723 9.13 196.393 9.61 195.953 10.03C195.533 10.45 194.993 10.79 194.333 11.05C193.673 11.31 192.903 11.44 192.023 11.44H182.453L197.273 19H190.853L176.033 11.47V8.44H192.113C192.773 8.44 193.293 8.24 193.673 7.84C194.053 7.44 194.243 6.86 194.243 6.1C194.243 5.34 194.053 4.78 193.673 4.42C193.293 4.04 192.773 3.85 192.113 3.85ZM213.39 6.34H216.42V19H213.39V6.34ZM225.45 6.07C225.45 5.37 225.21 4.83 224.73 4.45C224.27 4.05 223.73 3.85 223.11 3.85H204.39V19H201.36V0.82H222.87C224.57 0.82 225.92 1.23 226.92 2.05C227.94 2.87 228.45 3.98 228.45 5.38V19H225.45V6.07Z" fill="#5565FF"/>
</svg>
