<svg width="40" height="40" viewBox="0 0 40 40" fill="none" xmlns="http://www.w3.org/2000/svg">
<path d="M15.833 22.917C15.833 24.5337 17.083 25.8337 18.6164 25.8337H21.7497C23.083 25.8337 24.1663 24.7004 24.1663 23.2837C24.1663 21.767 23.4997 21.2171 22.5164 20.8671L17.4997 19.1171C16.5163 18.7671 15.8497 18.2337 15.8497 16.7004C15.8497 15.3004 16.933 14.1504 18.2663 14.1504H21.3997C22.933 14.1504 24.183 15.4504 24.183 17.0671" stroke="#292D32" stroke-width="1.5" stroke-linecap="round" stroke-linejoin="round"/>
<path d="M20 12.5V27.5" stroke="#292D32" stroke-width="1.5" stroke-linecap="round" stroke-linejoin="round"/>
<path d="M36.6663 19.9997C36.6663 29.1997 29.1997 36.6663 19.9997 36.6663C10.7997 36.6663 3.33301 29.1997 3.33301 19.9997C3.33301 10.7997 10.7997 3.33301 19.9997 3.33301" stroke="#292D32" stroke-width="1.5" stroke-linecap="round" stroke-linejoin="round"/>
<path d="M28.333 5V11.6667H34.9997" stroke="#292D32" stroke-width="1.5" stroke-linecap="round" stroke-linejoin="round"/>
<path d="M36.6663 3.33301L28.333 11.6663" stroke="#292D32" stroke-width="1.5" stroke-linecap="round" stroke-linejoin="round"/>
</svg>
