<svg width="40" height="40" viewBox="0 0 40 40" fill="none" xmlns="http://www.w3.org/2000/svg">
<path d="M14.9997 36.6663H24.9997C33.333 36.6663 36.6663 33.333 36.6663 24.9997V14.9997C36.6663 6.66634 33.333 3.33301 24.9997 3.33301H14.9997C6.66634 3.33301 3.33301 6.66634 3.33301 14.9997V24.9997C3.33301 33.333 6.66634 36.6663 14.9997 36.6663Z" stroke="#292D32" stroke-width="1.5" stroke-linecap="round" stroke-linejoin="round"/>
<path d="M13.333 31.6663H26.6663C29.9997 31.6663 31.6663 29.9997 31.6663 26.6663V13.333C31.6663 9.99967 29.9997 8.33301 26.6663 8.33301H13.333C9.99967 8.33301 8.33301 9.99967 8.33301 13.333V26.6663C8.33301 29.9997 9.99967 31.6663 13.333 31.6663Z" stroke="#292D32" stroke-width="1.5" stroke-linecap="round" stroke-linejoin="round"/>
<path d="M8.33301 15.833H12.4663C14.7663 15.833 16.633 17.6997 16.633 19.9997C16.633 22.2997 14.7663 24.1663 12.4663 24.1663H8.33301" stroke="#292D32" stroke-width="1.5" stroke-linecap="round" stroke-linejoin="round"/>
<path d="M31.667 16.6504H26.667" stroke="#292D32" stroke-width="1.5" stroke-linecap="round" stroke-linejoin="round"/>
<path d="M31.667 23.333H26.667" stroke="#292D32" stroke-width="1.5" stroke-linecap="round" stroke-linejoin="round"/>
<path d="M12 20H12.1667" stroke="#292D32" stroke-width="2" stroke-miterlimit="10" stroke-linecap="round" stroke-linejoin="round"/>
</svg>
