<svg width="40" height="40" viewBox="0 0 40 40" fill="none" xmlns="http://www.w3.org/2000/svg">
<path d="M15.0003 31.6667C15.0003 32.9167 14.6503 34.1 14.0337 35.1C12.8837 37.0333 10.767 38.3333 8.33366 38.3333C5.90033 38.3333 3.78366 37.0333 2.63366 35.1C2.017 34.1 1.66699 32.9167 1.66699 31.6667C1.66699 27.9833 4.65033 25 8.33366 25C12.017 25 15.0003 27.9833 15.0003 31.6667Z" stroke="#292D32" stroke-width="1.5" stroke-miterlimit="10" stroke-linecap="round" stroke-linejoin="round"/>
<path d="M5.73633 31.6655L7.38633 33.3155L10.9363 30.0322" stroke="#292D32" stroke-width="1.5" stroke-linecap="round" stroke-linejoin="round"/>
<path d="M29.586 11.7496C29.186 11.683 28.7693 11.6663 28.336 11.6663H11.6693C11.2027 11.6663 10.7527 11.6996 10.3193 11.7663C10.5527 11.2996 10.886 10.8664 11.286 10.4664L16.7027 5.03301C18.986 2.76634 22.686 2.76634 24.9693 5.03301L27.886 7.98294C28.9527 9.03294 29.5193 10.3663 29.586 11.7496Z" stroke="#292D32" stroke-width="1.5" stroke-linecap="round" stroke-linejoin="round"/>
<path d="M36.6663 20.0003V28.3337C36.6663 33.3337 33.333 36.667 28.333 36.667H12.7163C13.233 36.2337 13.683 35.7003 14.033 35.1003C14.6497 34.1003 14.9997 32.917 14.9997 31.667C14.9997 27.9837 12.0163 25.0003 8.33301 25.0003C6.33301 25.0003 4.54967 25.8836 3.33301 27.267V20.0003C3.33301 15.467 6.06634 12.3003 10.3163 11.767C10.7497 11.7003 11.1997 11.667 11.6663 11.667H28.333C28.7663 11.667 29.183 11.6836 29.583 11.7503C33.883 12.2503 36.6663 15.4337 36.6663 20.0003Z" stroke="#292D32" stroke-width="1.5" stroke-linecap="round" stroke-linejoin="round"/>
<path d="M36.6663 20.833H31.6663C29.833 20.833 28.333 22.333 28.333 24.1663C28.333 25.9997 29.833 27.4997 31.6663 27.4997H36.6663" stroke="#292D32" stroke-width="1.5" stroke-linecap="round" stroke-linejoin="round"/>
</svg>
